<svg width="69" height="69" viewBox="0 0 69 69" fill="none" xmlns="http://www.w3.org/2000/svg">
<circle cx="34.5" cy="34.5" r="34.5" fill="#7EB693"/>
<path d="M33.1836 32.5508V35.627C33.1836 36.9616 33.0412 38.1131 32.7563 39.0815C32.4715 40.0418 32.0605 40.8312 31.5234 41.4497C30.9945 42.0601 30.3638 42.5117 29.6313 42.8047C28.8989 43.0977 28.0851 43.2441 27.1899 43.2441C26.4738 43.2441 25.8065 43.1546 25.188 42.9756C24.5695 42.7884 24.012 42.4995 23.5156 42.1089C23.0273 41.7183 22.6042 41.2259 22.2461 40.6318C21.8962 40.0296 21.6276 39.3135 21.4404 38.4834C21.2533 37.6533 21.1597 36.7012 21.1597 35.627V32.5508C21.1597 31.2161 21.3021 30.0728 21.5869 29.1206C21.8799 28.1603 22.2909 27.375 22.8198 26.7646C23.3569 26.1543 23.9917 25.7067 24.7241 25.4219C25.4565 25.1289 26.2703 24.9824 27.1655 24.9824C27.8817 24.9824 28.5449 25.076 29.1553 25.2632C29.7738 25.4422 30.3312 25.723 30.8276 26.1055C31.3241 26.488 31.7472 26.9803 32.0972 27.5825C32.4471 28.1766 32.7157 28.8887 32.9028 29.7188C33.09 30.5407 33.1836 31.4847 33.1836 32.5508ZM29.6558 36.0908V32.0747C29.6558 31.4318 29.6191 30.8703 29.5459 30.3901C29.4808 29.91 29.3791 29.5031 29.2407 29.1694C29.1024 28.8276 28.9315 28.5509 28.728 28.3394C28.5246 28.1278 28.2926 27.9731 28.0322 27.8755C27.7718 27.7778 27.4829 27.729 27.1655 27.729C26.7668 27.729 26.4128 27.8063 26.1035 27.9609C25.8024 28.1156 25.5461 28.3638 25.3345 28.7056C25.1229 29.0392 24.9601 29.4868 24.8462 30.0483C24.7404 30.6017 24.6875 31.2772 24.6875 32.0747V36.0908C24.6875 36.7337 24.7201 37.2993 24.7852 37.7876C24.8584 38.2759 24.9642 38.695 25.1025 39.0449C25.249 39.3867 25.4199 39.6675 25.6152 39.8872C25.8187 40.0988 26.0506 40.2534 26.311 40.3511C26.5796 40.4487 26.8726 40.4976 27.1899 40.4976C27.5806 40.4976 27.9264 40.4202 28.2275 40.2656C28.5368 40.1029 28.7972 39.8506 29.0088 39.5088C29.2285 39.1589 29.3913 38.7031 29.4971 38.1416C29.6029 37.5801 29.6558 36.8965 29.6558 36.0908ZM47.7344 40.2534V43H35.5762V40.6562L41.3257 34.4917C41.9035 33.8488 42.3592 33.2832 42.6929 32.7949C43.0265 32.2985 43.2666 31.855 43.4131 31.4644C43.5677 31.0656 43.645 30.6872 43.645 30.3291C43.645 29.792 43.5555 29.3322 43.3765 28.9497C43.1974 28.5591 42.9329 28.258 42.583 28.0464C42.2412 27.8348 41.818 27.729 41.3135 27.729C40.7764 27.729 40.3125 27.8592 39.9219 28.1196C39.5394 28.38 39.2464 28.7422 39.043 29.2061C38.8477 29.6699 38.75 30.1948 38.75 30.7808H35.2222C35.2222 29.7228 35.4744 28.7544 35.979 27.8755C36.4836 26.9884 37.1956 26.2845 38.1152 25.7637C39.0348 25.2347 40.1253 24.9702 41.3867 24.9702C42.6318 24.9702 43.6816 25.1737 44.5361 25.5806C45.3988 25.9793 46.0498 26.5571 46.4893 27.314C46.9368 28.0627 47.1606 28.9578 47.1606 29.9995C47.1606 30.5854 47.0671 31.1592 46.8799 31.7207C46.6927 32.2741 46.4242 32.8275 46.0742 33.3809C45.7324 33.9261 45.3174 34.4795 44.8291 35.041C44.3408 35.6025 43.7996 36.1844 43.2056 36.7866L40.1172 40.2534H47.7344Z" fill="white"/>
</svg>
